<svg xmlns="http://www.w3.org/2000/svg" width="44" height="44" fill="none" viewBox="0 0 44 44"><g clip-path="url(#clip0_2041_168781)"><path fill="#344054" fill-rule="evenodd" d="M28.669 6.11c-1.967-2.657-5.734-3.226-8.387-1.261h-.002a6.423 6.423 0 0 1-4.8 1.193 5.955 5.955 0 0 0-4.456 1.11 5.958 5.958 0 0 0-2.362 3.933 6.429 6.429 0 0 1-2.554 4.24 5.958 5.958 0 0 0-2.362 3.932 5.956 5.956 0 0 0 1.11 4.456 6.434 6.434 0 0 1 1.194 4.802c-.484 3.267 1.777 6.327 5.042 6.819a6.428 6.428 0 0 1 4.24 2.553 5.992 5.992 0 0 0 4.828 2.426h.281l.003.002a5.934 5.934 0 0 0 3.275-1.166v-.001a6.472 6.472 0 0 1 4.798-1.194h.004a5.954 5.954 0 0 0 4.455-1.109 5.959 5.959 0 0 0 2.363-3.933 6.428 6.428 0 0 1 2.552-4.24h.001l.403.546-.404-.545a5.96 5.96 0 0 0 2.363-3.933 5.955 5.955 0 0 0-1.11-4.456 6.434 6.434 0 0 1-1.193-4.802l.67.1-.67-.1c.483-3.267-1.778-6.327-5.043-6.819a6.427 6.427 0 0 1-4.24-2.554Zm-9.195-2.352c3.259-2.413 7.875-1.712 10.286 1.545.811 1.1 2.001 1.816 3.35 2.018 4.007.603 6.776 4.355 6.183 8.36v.002a5.076 5.076 0 0 0 .943 3.795 7.313 7.313 0 0 1 1.36 5.463 7.316 7.316 0 0 1-2.897 4.822v.001c-1.1.81-1.816 2-2.018 3.35a7.316 7.316 0 0 1-2.897 4.822 7.311 7.311 0 0 1-5.462 1.361 5.114 5.114 0 0 0-3.797.943 7.293 7.293 0 0 1-4.356 1.439h-.281l-.015-.015a7.344 7.344 0 0 1-5.633-2.97 5.07 5.07 0 0 0-3.35-2.018c-4.007-.603-6.776-4.355-6.183-8.36v-.002a5.077 5.077 0 0 0-.942-3.794 7.312 7.312 0 0 1-1.36-5.464A7.316 7.316 0 0 1 5.3 14.234h.001c1.1-.812 1.815-2.002 2.018-3.35a7.316 7.316 0 0 1 2.896-4.823A7.311 7.311 0 0 1 15.68 4.7m3.794-.942.404.545Zm.404.545-.403-.546Zm-.403-.546a5.067 5.067 0 0 1-3.795.943Z" clip-rule="evenodd"/><path fill="#757C8D" fill-rule="evenodd" d="M24.435 10.533v2.016a1.135 1.135 0 0 1-2.27 0v-2.016h2.27Z" clip-rule="evenodd"/><path fill="#757C8D" fill-rule="evenodd" d="M25.647 9.848a.685.685 0 0 0-.685-.685h-3.324a.685.685 0 1 0 0 1.37h3.324a.685.685 0 0 0 .685-.685Z" clip-rule="evenodd"/><path fill="#344054" fill-rule="evenodd" d="M10.893 20.033c0-.377.305-.683.683-.683h5.875a.683.683 0 0 1 0 1.366h-5.875a.683.683 0 0 1-.684-.683Zm-2.5 3.3c0-.377.305-.683.683-.683H21.15a.683.683 0 0 1 0 1.367H9.076a.683.683 0 0 1-.684-.683ZM13.192 26.431c0-.377.306-.683.683-.683h2.775a.683.683 0 0 1 0 1.366h-2.775a.683.683 0 0 1-.683-.683Zm-3.1 0c0-.377.306-.683.683-.683h.775a.683.683 0 0 1 0 1.367h-.775a.683.683 0 0 1-.683-.683Z" clip-rule="evenodd"/><path fill="#344054" d="M22.065 18.628h3.486c.055 0 .091.058.067.107l-1.977 3.587a.074.074 0 0 0 .066.107l2.103.297c.068 0 .1.083.05.128l-4.4 4.752a.074.074 0 0 1-.05.02h.012a.074.074 0 0 1-.069-.103l1.402-3.054a.074.074 0 0 0-.05-.1c-.011-.003-.024-.004-.035-.009l-2.263-.875c-.011-.004-.023-.005-.035-.008a.074.074 0 0 1-.05-.1l.005-.014 1.67-4.689a.057.057 0 0 1 .006-.013.074.074 0 0 1 .062-.033Z"/><path fill="#344054" fill-rule="evenodd" d="M21.586 18.385a.574.574 0 0 1 .479-.257h3.486c.427 0 .704.449.514.83l-.005.01-1.68 3.05 1.479.21c.481.037.705.63.36.976l-4.406 4.757-.016.014a.574.574 0 0 1-.375.15h-.012a.574.574 0 0 1-.52-.792l.004-.01 1.215-2.644-1.853-.716-.007-.002a.574.574 0 0 1-.39-.776h.001l1.666-4.678a.56.56 0 0 1 .06-.122Zm1.348 6.893 2.01-2.17-1.286-.181a.574.574 0 0 1-.464-.828l.004-.01 1.632-2.961h-2.464l-1.433 4.024 1.888.73.007.002c.327.084.527.441.39.774l-.004.01-.28.61Zm-2.15-1.71-.002.003Zm-.002.003v-.002Zm0-.002.001-.001Z" clip-rule="evenodd"/><path fill="#757C8D" fill-rule="evenodd" d="M23.128 13.683a9.483 9.483 0 0 0-7.684 3.915.683.683 0 0 1-1.105-.804 10.85 10.85 0 0 1 8.79-4.477c6 0 10.863 4.864 10.863 10.864 0 6-4.864 10.864-10.864 10.864a10.85 10.85 0 0 1-8.789-4.477.683.683 0 0 1 1.105-.804 9.497 9.497 0 1 0 7.684-15.08Z" clip-rule="evenodd"/></g><defs><clipPath id="clip0_2041_168781"><path fill="#fff" d="M0 0h44v44H0z"/></clipPath></defs></svg>