<svg xmlns="http://www.w3.org/2000/svg" width="44" height="44" fill="none" viewBox="0 0 44 44"><path fill="#344054" fill-rule="evenodd" d="M28.691 6.093c-1.976-2.67-5.76-3.241-8.427-1.267a6.394 6.394 0 0 1-4.78 1.188 5.982 5.982 0 0 0-4.477 1.115 5.987 5.987 0 0 0-2.374 3.952A6.4 6.4 0 0 1 6.09 15.3a5.987 5.987 0 0 0-2.374 3.952 5.984 5.984 0 0 0 1.115 4.477l.001.001a6.405 6.405 0 0 1 1.188 4.78c-.486 3.282 1.786 6.357 5.066 6.851a6.4 6.4 0 0 1 4.22 2.542 6.02 6.02 0 0 0 4.853 2.437h.269l.003.003a5.962 5.962 0 0 0 3.303-1.172l.001-.001a6.443 6.443 0 0 1 4.777-1.188h.003a5.983 5.983 0 0 0 4.476-1.115 5.987 5.987 0 0 0 2.374-3.951 6.4 6.4 0 0 1 2.542-4.221 5.987 5.987 0 0 0 2.374-3.952 5.983 5.983 0 0 0-1.115-4.477h-.001a6.406 6.406 0 0 1-1.188-4.78c.486-3.283-1.786-6.358-5.066-6.852m-4.22-2.542a6.399 6.399 0 0 0 4.22 2.542ZM19.49 3.78c3.246-2.404 7.844-1.705 10.245 1.539h.001a5.099 5.099 0 0 0 3.368 2.03c3.992.6 6.75 4.338 6.16 8.328l-.001.001a5.105 5.105 0 0 0 .948 3.815 7.284 7.284 0 0 1 1.355 5.443 7.287 7.287 0 0 1-2.885 4.803l-.001.001a5.1 5.1 0 0 0-2.03 3.369 7.287 7.287 0 0 1-2.885 4.803 7.282 7.282 0 0 1-5.44 1.356 5.143 5.143 0 0 0-3.817.947 7.265 7.265 0 0 1-4.34 1.434h-.27l-.014-.014a7.316 7.316 0 0 1-5.622-2.959 5.099 5.099 0 0 0-3.369-2.03c-3.991-.6-6.75-4.338-6.159-8.327v-.002a5.105 5.105 0 0 0-.948-3.815 7.284 7.284 0 0 1-1.355-5.443 7.287 7.287 0 0 1 2.886-4.803 5.1 5.1 0 0 0 2.03-3.37 7.287 7.287 0 0 1 2.885-4.803 7.283 7.283 0 0 1 5.443-1.356m-7.687 6.256h.001l11.887-6.68m0 0-.386-.524Zm-.386-.524a5.095 5.095 0 0 1-3.815.948Z" clip-rule="evenodd"/><path fill="#757C8D" fill-rule="evenodd" d="M12.729 14.885a2.52 2.52 0 0 1 2.52-2.521h14.667a2.52 2.52 0 0 1 2.52 2.52v2.72a.687.687 0 1 1-1.374 0v-2.72c0-.632-.513-1.145-1.146-1.145H15.249c-.633 0-1.146.513-1.146 1.146v8.766a.687.687 0 1 1-1.374 0v-8.766Z" clip-rule="evenodd"/><path fill="#757C8D" fill-rule="evenodd" d="M32.435 29.218a2.52 2.52 0 0 1-2.52 2.52h-2.436a.687.687 0 1 1 0-1.374h2.436c.633 0 1.146-.513 1.146-1.146V17.85a.688.688 0 0 1 1.374 0v11.367Z" clip-rule="evenodd"/><path fill="#757C8D" d="M23.578 18.016V13.7h5.5v4.316a.55.55 0 0 1-.716.524l-1.868-.592a.55.55 0 0 0-.332 0l-1.868.592a.55.55 0 0 1-.716-.524Z"/><path fill="#344054" fill-rule="evenodd" d="M18.622 26.668c-1.591-.58-3.374-.32-5.477.895a.618.618 0 1 1-.619-1.07c2.3-1.328 4.472-1.733 6.52-.987 2.017.736 3.771 2.541 5.368 5.307a.618.618 0 1 1-1.07.618c-1.537-2.66-3.103-4.172-4.722-4.763Z" clip-rule="evenodd"/><path fill="#344054" fill-rule="evenodd" d="M18.675 27.097c-1.607-.39-3.446.056-5.613 1.307a.618.618 0 0 1-.618-1.07c2.29-1.324 4.471-1.937 6.523-1.439 2.06.501 3.825 2.081 5.377 4.769a.618.618 0 0 1-1.071.618c-1.465-2.537-2.998-3.796-4.598-4.185Z" clip-rule="evenodd"/><path fill="#344054" fill-rule="evenodd" d="M18.854 27.284c-1.535-.304-3.31.227-5.505 1.495a.618.618 0 1 1-.619-1.072c2.268-1.309 4.377-2.03 6.364-1.636 2.013.399 3.717 1.9 5.266 4.583a.618.618 0 0 1-1.071.618c-1.467-2.54-2.924-3.688-4.435-3.988Z" clip-rule="evenodd"/><path fill="#344054" fill-rule="evenodd" d="M19.193 27.738c-1.41-.11-3.058.626-5.31 1.926a.618.618 0 1 1-.618-1.07c2.208-1.276 4.178-2.234 6.024-2.09 1.933.152 3.526 1.473 5.072 4.15a.618.618 0 0 1-1.071.619c-1.471-2.548-2.773-3.432-4.097-3.535Z" clip-rule="evenodd"/><path fill="#344054" d="m10.385 29.749 3.622.914a.082.082 0 0 0 .092-.121l-1.331-2.305-1.331-2.306a.082.082 0 0 0-.15.02l-1.02 3.593a.165.165 0 0 0 .118.205Z"/><path fill="#344054" fill-rule="evenodd" d="m11.535 27.339-.546 1.925 1.94.49-1.394-2.415Zm-.844-1.557a.7.7 0 0 1 1.281-.16l2.662 4.61a.7.7 0 0 1-.778 1.03l-3.622-.914a.783.783 0 0 1-.562-.973l1.019-3.593ZM31.721 38.289 9.933 7.126l1.065-.745 21.788 31.163-1.065.745Z" clip-rule="evenodd"/></svg>